<?xml version="1.0" encoding="UTF-8"?>
<svg viewBox="0 0 640 480" xmlns="http://www.w3.org/2000/svg" xmlns:xlink="http://www.w3.org/1999/xlink">
 <defs>
  <filter id="g">
   <feGaussianBlur stdDeviation="3.7"/>
  </filter>
  <linearGradient id="a">
   <stop stop-color="#fff" offset="0"/>
   <stop stop-color="#fff" stop-opacity="0" offset="1"/>
  </linearGradient>
  <radialGradient id="j" cx="199.28" cy="192.84" r="53.688" gradientTransform="matrix(0 2.8729 -1 0 392.84 -372.51)" gradientUnits="userSpaceOnUse">
   <stop stop-color="#f7f7f7" offset="0"/>
   <stop stop-color="#e1e1e1" offset="1"/>
  </radialGradient>
  <radialGradient id="h" cx="289.43" cy="209.67" r="92.5" gradientTransform="matrix(-.86959 .86959 -1.9615 -1.9615 681.51 178.14)" gradientUnits="userSpaceOnUse" xlink:href="#a"/>
  <radialGradient id="k" cx="199.28" cy="192.84" r="68.844" gradientTransform="matrix(0 2.7782 -.82388 0 358.88 -353.65)" gradientUnits="userSpaceOnUse">
   <stop stop-color="#6c6c6c" offset="0"/>
   <stop stop-color="#3e3e3e" offset="1"/>
  </radialGradient>
  <radialGradient id="i" cx="289.43" cy="209.67" r="92.5" gradientTransform="matrix(.86959 -.86959 1.9615 1.9615 -281.51 221.86)" gradientUnits="userSpaceOnUse" xlink:href="#a"/>
 </defs>
 <g fill-rule="evenodd" stroke-width="2.7">
  <path d="m290.71 31c-102.12 0-185 82.88-185 185s82.88 185 185 185 185-82.88 185-185-82.88-185-185-185zm0 179.81c2.8664 0 5.1875 2.321 5.1875 5.1875s-2.321 5.1875-5.1875 5.1875c-2.8664 0-5.1875-2.321-5.1875-5.1875s2.321-5.1875 5.1875-5.1875z" fill-opacity=".509" filter="url(#g)"/>
  <path d="m288 27c-102.12 0-185 82.88-185 185s82.88 185 185 185 185-82.88 185-185-82.88-185-185-185zm0 179.81c2.8664 0 5.1875 2.321 5.1875 5.1875s-2.321 5.1875-5.1875 5.1875c-2.8664 0-5.1875-2.321-5.1875-5.1875s2.321-5.1875 5.1875-5.1875z"/>
  <path d="m288 144.66c-37.159 0-67.344 30.184-67.344 67.344 0 37.159 30.184 67.344 67.344 67.344 37.159 0 67.344-30.184 67.344-67.344 0-37.159-30.184-67.344-67.344-67.344zm0 62.906c2.4541 0 4.4375 1.9834 4.4375 4.4375s-1.9834 4.4375-4.4375 4.4375-4.4375-1.9834-4.4375-4.4375 1.9834-4.4375 4.4375-4.4375z" fill="#333"/>
  <path d="m288 27c-102.12 0-185 82.88-185 185s82.88 185 185 185 185-82.88 185-185-82.88-185-185-185zm0 3.5938c100.15 0 181.44 81.258 181.44 181.41s-81.289 181.44-181.44 181.44-181.44-81.289-181.44-181.44 81.289-181.41 181.44-181.41z"/>
  <path d="m381.56 212c0 51.651-41.911 93.594-93.562 93.594v87.844c100.15 0 181.44-81.289 181.44-181.44h-87.875z" fill="url(#i)"/>
  <path d="m194.44 212c0-51.651 41.911-93.594 93.562-93.594v-87.844c-100.15 0-181.44 81.289-181.44 181.44h87.875z" fill="url(#h)"/>
  <path d="m336.68 163.32c-26.867-26.867-70.493-26.867-97.36 0s-26.867 70.493 0 97.36 70.493 26.867 97.36 0 26.867-70.493 0-97.36zm-2.1434 2.1434c25.684 25.684 25.684 67.389 0 93.073s-67.389 25.684-93.073 0-25.684-67.389 0-93.073 67.389-25.684 93.073 0z" fill="url(#k)"/>
  <path d="m325.96 174.04c-20.953-20.953-54.973-20.953-75.926 0s-20.953 54.973 0 75.926 54.973 20.953 75.926 0 20.953-54.973 0-75.926zm-34.295 34.295c2.0269 2.0269 2.0269 5.3093 0 7.3362s-5.3094 2.0269-7.3362 0c-2.0269-2.0269-2.0269-5.3093 0-7.3362s5.3094-2.0269 7.3362 0z" fill="url(#j)"/>
  <g fill="#fff">
   <path d="m331.95 168.05c-7.0618-7.0618-15.406-12.053-24.285-15.004l-1.2375 3.7123c8.3153 2.7644 16.125 7.4625 22.738 14.076 8.0563 8.0563 13.256 17.884 15.601 28.24l3.8228-0.8618c-2.502-11.056-8.0376-21.561-16.639-30.162z" opacity=".743"/>
   <path d="m230.61 202.26l-3.8891-0.6629c-3.2372 19.173 2.5385 39.573 17.324 54.359 14.746 14.746 35.076 20.526 54.204 17.346l-0.6408-3.867c-17.925 2.9839-36.962-2.4462-50.779-16.264-13.852-13.852-19.253-32.947-16.219-50.912z" opacity=".743"/>
  </g>
 </g>
</svg>
